<svg width="127" height="30" fill="none" xmlns="http://www.w3.org/2000/svg"><path fill-rule="evenodd" clip-rule="evenodd" d="m49.582 21.686-1.714 7.97h-3.943L50.44.77h4.67l6.13 28.885h-3.987l-1.671-7.97h-6Zm5.528-3.215-1.328-6.9c-.386-1.972-.772-4.542-1.07-6.6h-.173c-.3 2.1-.73 4.756-1.114 6.6l-1.371 6.9h5.056ZM76.29 0v24.3c0 1.586.085 3.9.17 5.356h-3.47l-.258-2.527h-.128C71.918 28.584 70.332 30 68.233 30c-3.857 0-6.215-4.2-6.215-10.671 0-7.372 3.128-10.843 6.43-10.843 1.67 0 2.999.772 3.727 2.357h.086V0h4.029Zm-4.03 16.757c0-.385 0-.857-.043-1.287-.214-1.885-1.285-3.513-2.742-3.513-2.53 0-3.386 3.513-3.386 7.371 0 4.286 1.115 7.285 3.258 7.285.9 0 2.099-.47 2.785-2.956.085-.343.128-.858.128-1.328v-5.572Zm13.625 13.242c-4.156 0-7.157-3.557-7.157-10.713 0-7.586 3.557-10.8 7.371-10.8 4.114 0 7.07 3.685 7.07 10.714 0 8.271-4.07 10.8-7.241 10.8h-.043Zm.128-3.17c2.485 0 3.043-4.415 3.043-7.586 0-3.129-.557-7.586-3.128-7.586-2.658 0-3.171 4.457-3.171 7.586 0 3.471.6 7.585 3.214 7.585h.042ZM95.598 0h4.028v11.185h.086c1.072-1.885 2.529-2.7 4.372-2.7 3.556 0 5.786 4.029 5.786 10.415 0 7.456-3.043 11.1-6.472 11.1-2.057 0-3.214-1.116-4.115-2.959h-.17l-.215 2.615h-3.47c.085-1.414.17-3.771.17-5.358V0Zm4.028 22.284c0 .473.043.944.172 1.287.642 2.529 1.886 3.042 2.699 3.042 2.4 0 3.3-3.17 3.3-7.456 0-3.986-.942-7.2-3.343-7.2-1.328 0-2.4 1.585-2.7 3.085a7.89 7.89 0 0 0-.128 1.415v5.827Zm16.188-2.228c.043 5.357 2.357 6.685 4.799 6.685 1.458 0 2.7-.342 3.601-.771l.6 2.914c-1.243.643-3.129.987-4.972.987-5.228 0-7.971-3.943-7.971-10.372 0-6.814 3.128-11.015 7.457-11.015 4.328 0 6.343 4.158 6.343 9.387 0 1.028-.044 1.672-.086 2.228l-9.771-.043Zm6.042-2.87c.043-3.686-1.243-5.657-2.828-5.657-2.1 0-3.043 3.043-3.171 5.656h5.999ZM21.222.848h12.034v28.808L21.222.848Zm-8.478 0H.703v28.808L12.745.848Zm4.24 10.617 7.667 18.19h-5.024l-2.293-5.793h-5.612l5.262-12.397ZM125.329 8.432a.914.914 0 0 1 .91.926c0 .523-.404.93-.915.93a.919.919 0 0 1-.918-.93.912.912 0 0 1 .267-.654.924.924 0 0 1 .651-.272h.005Zm-.005.143c-.407 0-.741.351-.741.783 0 .44.334.787.746.787.411.004.74-.346.74-.783 0-.436-.329-.787-.74-.787h-.005Zm-.173 1.323h-.164V8.864c.087-.012.169-.025.293-.025.156 0 .259.033.321.078s.095.115.095.215c0 .135-.091.218-.202.251v.008c.09.016.152.1.172.251.025.161.05.223.067.256h-.173c-.025-.033-.049-.128-.07-.263-.025-.133-.091-.182-.223-.182h-.115v.445h-.001Zm0-.573h.12c.135 0 .252-.049.252-.177 0-.09-.067-.181-.252-.181a.789.789 0 0 0-.12.008v.35ZM34.842.848a.915.915 0 0 1 .91.926c0 .523-.404.931-.914.931a.92.92 0 0 1-.919-.93.921.921 0 0 1 .919-.927h.004Zm-.004.143c-.408 0-.742.351-.742.783 0 .441.334.787.746.787.412.004.742-.346.742-.782 0-.437-.33-.788-.742-.788h-.004Zm-.173 1.323H34.5V1.28c.097-.016.195-.024.293-.024.156 0 .26.032.32.078.063.045.096.115.096.214 0 .136-.091.218-.203.251v.008c.091.017.153.1.174.252.024.161.05.223.066.256h-.173c-.025-.033-.05-.128-.07-.264-.025-.132-.09-.18-.223-.18h-.115v.443Zm0-.573h.12c.135 0 .25-.049.25-.177 0-.09-.065-.181-.25-.181a.769.769 0 0 0-.12.008v.35Z" fill="#000"/></svg>