<svg width="93" height="30" fill="none" xmlns="http://www.w3.org/2000/svg"><g clip-path="url('#clip0_3_89')" fill="#000"><path d="M12.14.003h.818c2.838.062 5.629 1.203 7.633 3.223-.74.756-1.495 1.48-2.22 2.237-1.126-1.018-2.483-1.805-3.963-2.082-2.19-.463-4.55-.047-6.385 1.202-2.005 1.311-3.362 3.532-3.655 5.907-.324 2.344.34 4.811 1.866 6.631a8.254 8.254 0 0 0 6.014 2.961c2.16.123 4.411-.54 5.984-2.051 1.234-1.064 1.804-2.683 1.99-4.256-2.56 0-5.12.015-7.68 0v-3.177h10.78c.554 3.408-.248 7.248-2.838 9.684-1.728 1.728-4.118 2.745-6.555 2.946-2.359.231-4.796-.216-6.893-1.357-2.514-1.342-4.518-3.609-5.505-6.277C.605 13.142.59 10.367 1.454 7.9a11.74 11.74 0 0 1 4.24-5.629C7.56.898 9.827.142 12.141.003ZM73.98.805h3.3v22.021c-1.094 0-2.205.016-3.3-.015.016-7.325 0-14.666 0-22.006ZM30.662 8.438c2.035-.385 4.24.046 5.922 1.265a7.244 7.244 0 0 1 2.914 4.626c.417 2.144-.108 4.488-1.496 6.184-1.495 1.897-3.948 2.915-6.338 2.76-2.19-.123-4.318-1.218-5.613-3.007-1.465-1.973-1.82-4.688-1.018-7 .802-2.484 3.069-4.38 5.629-4.828Zm.462 2.93a4.146 4.146 0 0 0-2.159 1.373c-1.495 1.789-1.403 4.703.247 6.369.94.956 2.36 1.403 3.67 1.141 1.219-.216 2.283-1.033 2.869-2.113 1.018-1.835.725-4.364-.833-5.798-1.002-.925-2.467-1.311-3.794-.972ZM47.008 8.438c2.33-.447 4.874.2 6.616 1.835 2.838 2.545 3.146 7.31.725 10.24-1.465 1.85-3.84 2.869-6.184 2.76-2.236-.061-4.441-1.171-5.767-3.007-1.496-2.02-1.82-4.796-.972-7.155.848-2.406 3.069-4.241 5.582-4.673Zm.463 2.93a4.217 4.217 0 0 0-2.159 1.357c-1.48 1.758-1.419 4.627.17 6.308.94 1.002 2.406 1.496 3.763 1.218a4.23 4.23 0 0 0 2.868-2.113c1.002-1.85.71-4.38-.864-5.814a4.134 4.134 0 0 0-3.778-.956ZM60.872 9.333c1.774-1.11 4.133-1.42 6.046-.463.601.262 1.094.71 1.573 1.157.015-.417 0-.849.015-1.28 1.033.015 2.067 0 3.115.015v13.602c-.015 2.05-.54 4.225-2.02 5.721-1.62 1.65-4.102 2.16-6.338 1.82-2.39-.355-4.472-2.098-5.398-4.303.925-.447 1.897-.802 2.853-1.218.54 1.264 1.635 2.344 3.007 2.59 1.373.247 2.961-.092 3.856-1.233.956-1.172.956-2.776.91-4.21-.71.694-1.527 1.31-2.514 1.542-2.144.602-4.503-.139-6.153-1.588-1.666-1.45-2.653-3.686-2.56-5.907.046-2.513 1.465-4.935 3.608-6.245Zm3.193 1.974c-.941.154-1.82.678-2.421 1.403-1.45 1.727-1.45 4.488.015 6.184.833 1.002 2.174 1.558 3.47 1.419 1.218-.124 2.344-.895 2.945-1.959 1.018-1.804.848-4.256-.524-5.83a3.795 3.795 0 0 0-3.485-1.217ZM81.244 10.12c1.85-1.728 4.704-2.314 7.078-1.404 2.252.848 3.686 2.992 4.411 5.197-3.347 1.388-6.678 2.76-10.024 4.148.463.88 1.172 1.681 2.128 2.005 1.342.478 2.946.308 4.072-.586.447-.34.801-.787 1.14-1.218.849.57 1.697 1.125 2.545 1.696-1.203 1.804-3.223 3.069-5.397 3.27-2.406.292-4.966-.633-6.524-2.514-2.56-2.961-2.313-7.927.571-10.595Zm1.65 2.852c-.524.756-.74 1.681-.725 2.59 2.236-.924 4.472-1.85 6.709-2.79-.37-.864-1.265-1.388-2.175-1.527-1.465-.262-2.992.524-3.809 1.727Z"/></g><defs><clipPath id="clip0_3_89"><path fill="#fff" transform="translate(.821)" d="M0 0h91.912v30H0z"/></clipPath></defs></svg>