<svg width="119" height="30" fill="none" xmlns="http://www.w3.org/2000/svg"><g clip-path="url('#clip0_3_81')" fill="#000"><path fill-rule="evenodd" clip-rule="evenodd" d="m38.168 23.622 1.48-3.439C41.246 21.378 43.375 22 45.476 22c1.55 0 2.532-.598 2.532-1.504-.023-2.532-9.29-.55-9.361-6.9-.024-3.225 2.84-5.71 6.9-5.71 2.414 0 4.823.598 6.545 1.96l-1.385 3.508c-1.575-1.005-3.533-1.721-5.397-1.721-1.266 0-2.1.598-2.1 1.361.023 2.485 9.36 1.124 9.455 7.19 0 3.295-2.793 5.614-6.805 5.614-2.94-.004-5.639-.697-7.692-2.176Zm56.818-4.681a4.295 4.295 0 0 1-3.728 2.172 4.267 4.267 0 0 1-4.272-4.273 4.27 4.27 0 0 1 4.272-4.273 4.3 4.3 0 0 1 3.728 2.172l4.083-2.267c-1.527-2.722-4.467-4.586-7.81-4.586a8.96 8.96 0 0 0-8.959 8.959 8.96 8.96 0 0 0 8.958 8.958 8.904 8.904 0 0 0 7.811-4.586l-4.083-2.276ZM54.719.455h5.112v25.007h-5.112V.455Zm46.356 0v25.007h5.112v-7.503l6.066 7.503h6.544l-7.716-8.911 7.142-8.314h-6.26l-5.781 6.9V.455h-5.107Z"/><path d="M75.02 18.988c-.74 1.22-2.266 2.125-3.988 2.125a4.267 4.267 0 0 1-4.272-4.273 4.27 4.27 0 0 1 4.272-4.273c1.722 0 3.249.953 3.989 2.196v4.225Zm0-10.746v2.03c-.834-1.409-2.911-2.39-5.088-2.39-4.49 0-8.024 3.964-8.024 8.934 0 4.97 3.533 8.982 8.024 8.982 2.172 0 4.25-.977 5.089-2.39v2.03h5.112V8.242H75.02Z"/><path fill-rule="evenodd" clip-rule="evenodd" d="M6.57 18.965a3.15 3.15 0 0 1-3.154 3.153 3.152 3.152 0 0 1-3.154-3.153 3.152 3.152 0 0 1 3.154-3.154H6.57v3.154Zm1.574 0a3.15 3.15 0 0 1 3.154-3.154 3.15 3.15 0 0 1 3.153 3.154v7.881A3.15 3.15 0 0 1 11.298 30a3.15 3.15 0 0 1-3.154-3.154v-7.881ZM11.298 6.307a3.15 3.15 0 0 1-3.154-3.153A3.15 3.15 0 0 1 11.298 0a3.15 3.15 0 0 1 3.153 3.154v3.153h-3.153Zm0 1.598a3.15 3.15 0 0 1 3.153 3.154 3.15 3.15 0 0 1-3.153 3.154H3.392A3.152 3.152 0 0 1 .24 11.059a3.152 3.152 0 0 1 3.153-3.154h7.906ZM23.931 11.06a3.15 3.15 0 0 1 3.154-3.155 3.15 3.15 0 0 1 3.154 3.154 3.15 3.15 0 0 1-3.154 3.154h-3.154v-3.154Zm-1.574 0a3.15 3.15 0 0 1-3.154 3.153 3.15 3.15 0 0 1-3.153-3.154V3.154A3.15 3.15 0 0 1 19.203 0a3.15 3.15 0 0 1 3.154 3.154v7.905ZM19.203 23.693a3.15 3.15 0 0 1 3.154 3.153A3.15 3.15 0 0 1 19.203 30a3.15 3.15 0 0 1-3.153-3.154v-3.153h3.153Zm0-1.575a3.15 3.15 0 0 1-3.153-3.153 3.15 3.15 0 0 1 3.153-3.154h7.906a3.15 3.15 0 0 1 3.153 3.154 3.15 3.15 0 0 1-3.153 3.153h-7.906Z"/></g><defs><clipPath id="clip0_3_81"><path fill="#fff" transform="translate(.239)" d="M0 0h118.558v30H0z"/></clipPath></defs></svg>