<svg width="101" height="30" fill="none" xmlns="http://www.w3.org/2000/svg"><g clip-path="url('#clip0_3_96')"><path d="M15.797 0c-8.284 0-15 6.716-15 15 0 8.285 6.716 15 15 15 8.284 0 15-6.715 15-15 0-8.284-6.715-15-15-15Zm6.879 21.634a.934.934 0 0 1-1.286.311c-3.522-2.153-7.956-2.64-13.177-1.446a.934.934 0 1 1-.416-1.823c5.714-1.306 10.615-.744 14.569 1.672.44.27.58.846.31 1.286Zm1.836-4.084a1.17 1.17 0 0 1-1.609.385c-4.03-2.478-10.178-3.195-14.947-1.748a1.171 1.171 0 0 1-1.46-.779 1.171 1.171 0 0 1 .78-1.458c5.448-1.653 12.22-.853 16.85 1.993a1.17 1.17 0 0 1 .386 1.607Zm.157-4.253c-4.835-2.871-12.81-3.135-17.426-1.734a1.403 1.403 0 1 1-.814-2.685C11.727 7.269 20.535 7.58 26.1 10.884a1.403 1.403 0 0 1-1.431 2.413Zm16.938.55c-2.59-.617-3.051-1.05-3.051-1.961 0-.86.81-1.44 2.015-1.44 1.168 0 2.326.44 3.54 1.345a.17.17 0 0 0 .24-.038l1.264-1.783a.17.17 0 0 0-.032-.23c-1.445-1.16-3.072-1.723-4.974-1.723-2.796 0-4.75 1.678-4.75 4.079 0 2.575 1.685 3.486 4.597 4.19 2.478.571 2.897 1.05 2.897 1.904 0 .948-.846 1.537-2.207 1.537-1.512 0-2.745-.51-4.124-1.704a.178.178 0 0 0-.125-.04.168.168 0 0 0-.116.06l-1.418 1.687a.168.168 0 0 0 .017.235c1.605 1.433 3.578 2.19 5.709 2.19 3.013 0 4.96-1.647 4.96-4.196.005-2.15-1.282-3.342-4.437-4.11l-.005-.002Zm11.26-2.554c-1.307 0-2.378.515-3.262 1.569v-1.187a.17.17 0 0 0-.169-.17h-2.32a.17.17 0 0 0-.169.17V24.86c0 .093.076.17.17.17h2.319a.17.17 0 0 0 .17-.17v-4.162c.883.992 1.954 1.476 3.26 1.476 2.427 0 4.884-1.868 4.884-5.439.004-3.572-2.454-5.44-4.881-5.44h-.003Zm2.186 5.441c0 1.819-1.12 3.088-2.724 3.088-1.586 0-2.782-1.327-2.782-3.088 0-1.76 1.196-3.088 2.782-3.088 1.578 0 2.724 1.298 2.724 3.088Zm8.994-5.44c-3.126 0-5.574 2.406-5.574 5.479 0 3.04 2.432 5.42 5.535 5.42 3.137 0 5.593-2.398 5.593-5.459 0-3.05-2.44-5.44-5.554-5.44Zm0 8.546c-1.662 0-2.916-1.336-2.916-3.107 0-1.778 1.21-3.069 2.877-3.069 1.674 0 2.935 1.336 2.935 3.108 0 1.778-1.218 3.068-2.896 3.068Zm12.228-8.335h-2.552V8.896a.17.17 0 0 0-.169-.17h-2.319a.17.17 0 0 0-.17.17v2.61H69.95a.17.17 0 0 0-.169.17v1.992c0 .094.076.17.17.17h1.114v5.157c0 2.084 1.038 3.141 3.083 3.141.832 0 1.522-.172 2.173-.54a.169.169 0 0 0 .085-.148V19.55a.17.17 0 0 0-.245-.152 2.922 2.922 0 0 1-1.362.329c-.744 0-1.076-.338-1.076-1.095v-4.793h2.552a.17.17 0 0 0 .17-.17v-1.993a.164.164 0 0 0-.167-.17h-.003Zm8.892.01v-.32c0-.943.361-1.363 1.172-1.363.483 0 .872.096 1.306.241a.17.17 0 0 0 .224-.161V7.957a.17.17 0 0 0-.12-.162 6.365 6.365 0 0 0-1.928-.277c-2.142 0-3.274 1.206-3.274 3.487v.49h-1.114a.17.17 0 0 0-.17.17v2.003c0 .094.076.17.17.17h1.114v7.955c0 .094.076.17.169.17h2.32a.17.17 0 0 0 .169-.17v-7.954h2.165l3.317 7.952c-.376.836-.747 1.002-1.252 1.002-.409 0-.84-.122-1.279-.363a.174.174 0 0 0-.135-.012.171.171 0 0 0-.1.091l-.786 1.725a.169.169 0 0 0 .073.22c.82.444 1.561.633 2.476.633 1.713 0 2.66-.797 3.494-2.943L97.2 11.748a.17.17 0 0 0-.158-.232H94.63a.17.17 0 0 0-.16.114l-2.474 7.064-2.708-7.069a.17.17 0 0 0-.159-.109h-3.962Zm-5.155-.01h-2.32a.17.17 0 0 0-.17.17v10.118c0 .094.077.17.17.17h2.32a.17.17 0 0 0 .17-.17V11.676a.171.171 0 0 0-.105-.157.17.17 0 0 0-.066-.013ZM78.865 6.9a1.663 1.663 0 1 0-.004 3.326 1.663 1.663 0 0 0 .005-3.326Zm20.316 7.86a1.626 1.626 0 0 1-1.632-1.633c0-.895.723-1.64 1.64-1.64.918 0 1.632.736 1.632 1.63a1.64 1.64 0 0 1-1.64 1.642Zm.009-3.111a1.46 1.46 0 0 0-1.468 1.478c0 .814.628 1.47 1.46 1.47a1.46 1.46 0 0 0 1.468-1.48c0-.813-.628-1.468-1.46-1.468Zm.362 1.637.461.646h-.389l-.415-.593h-.358v.593h-.326v-1.713h.764c.398 0 .66.204.66.546.002.281-.161.453-.396.52h-.001Zm-.276-.773h-.425v.542h.425c.212 0 .339-.104.339-.272 0-.176-.128-.27-.339-.27Z" fill="#000"/></g><defs><clipPath id="clip0_3_96"><path fill="#fff" transform="translate(.797)" d="M0 0h100.024v30H0z"/></clipPath></defs></svg>